<mxfile host="Electron" modified="2023-07-27T08:21:39.311Z" agent="Mozilla/5.0 (Windows NT 10.0; Win64; x64) AppleWebKit/537.36 (KHTML, like Gecko) draw.io/21.6.5 Chrome/114.0.5735.243 Electron/25.3.1 Safari/537.36" etag="8SZi2Mhjf2QrFs3moaOH" version="21.6.5" type="device">
  <diagram name="Page-1" id="ll-cR9EROuybee32PbDt">
    <mxGraphModel dx="1098" dy="820" grid="1" gridSize="10" guides="1" tooltips="1" connect="1" arrows="1" fold="1" page="1" pageScale="1" pageWidth="850" pageHeight="1100" math="0" shadow="0">
      <root>
        <mxCell id="0" />
        <mxCell id="1" parent="0" />
        <mxCell id="VoiKXLWZ08wAaBAvp7RD-2" style="edgeStyle=orthogonalEdgeStyle;rounded=0;orthogonalLoop=1;jettySize=auto;html=1;" edge="1" parent="1" source="VoiKXLWZ08wAaBAvp7RD-1">
          <mxGeometry relative="1" as="geometry">
            <mxPoint x="420" y="170" as="targetPoint" />
          </mxGeometry>
        </mxCell>
        <mxCell id="VoiKXLWZ08wAaBAvp7RD-1" value="Start" style="rounded=1;whiteSpace=wrap;html=1;" vertex="1" parent="1">
          <mxGeometry x="360" y="40" width="120" height="60" as="geometry" />
        </mxCell>
        <mxCell id="VoiKXLWZ08wAaBAvp7RD-6" style="edgeStyle=orthogonalEdgeStyle;rounded=0;orthogonalLoop=1;jettySize=auto;html=1;entryX=0.5;entryY=0;entryDx=0;entryDy=0;" edge="1" parent="1" source="VoiKXLWZ08wAaBAvp7RD-4" target="VoiKXLWZ08wAaBAvp7RD-65">
          <mxGeometry relative="1" as="geometry">
            <mxPoint x="420" y="320" as="targetPoint" />
          </mxGeometry>
        </mxCell>
        <mxCell id="VoiKXLWZ08wAaBAvp7RD-4" value="Input a,b,c" style="shape=parallelogram;perimeter=parallelogramPerimeter;whiteSpace=wrap;html=1;fixedSize=1;" vertex="1" parent="1">
          <mxGeometry x="360" y="170" width="120" height="60" as="geometry" />
        </mxCell>
        <mxCell id="VoiKXLWZ08wAaBAvp7RD-66" style="edgeStyle=orthogonalEdgeStyle;rounded=0;orthogonalLoop=1;jettySize=auto;html=1;" edge="1" parent="1" source="VoiKXLWZ08wAaBAvp7RD-65">
          <mxGeometry relative="1" as="geometry">
            <mxPoint x="240" y="340" as="targetPoint" />
          </mxGeometry>
        </mxCell>
        <mxCell id="VoiKXLWZ08wAaBAvp7RD-67" value="TRUE" style="edgeLabel;html=1;align=center;verticalAlign=middle;resizable=0;points=[];" vertex="1" connectable="0" parent="VoiKXLWZ08wAaBAvp7RD-66">
          <mxGeometry x="-0.0036" y="1" relative="1" as="geometry">
            <mxPoint as="offset" />
          </mxGeometry>
        </mxCell>
        <mxCell id="VoiKXLWZ08wAaBAvp7RD-69" style="edgeStyle=orthogonalEdgeStyle;rounded=0;orthogonalLoop=1;jettySize=auto;html=1;exitX=0.5;exitY=1;exitDx=0;exitDy=0;entryX=0.5;entryY=0;entryDx=0;entryDy=0;" edge="1" parent="1" source="VoiKXLWZ08wAaBAvp7RD-65" target="VoiKXLWZ08wAaBAvp7RD-71">
          <mxGeometry relative="1" as="geometry">
            <mxPoint x="370" y="530" as="targetPoint" />
            <mxPoint x="220" y="530" as="sourcePoint" />
          </mxGeometry>
        </mxCell>
        <mxCell id="VoiKXLWZ08wAaBAvp7RD-70" value="FALSE" style="edgeLabel;html=1;align=center;verticalAlign=middle;resizable=0;points=[];" vertex="1" connectable="0" parent="VoiKXLWZ08wAaBAvp7RD-69">
          <mxGeometry x="-0.0033" y="-1" relative="1" as="geometry">
            <mxPoint x="1" y="-1" as="offset" />
          </mxGeometry>
        </mxCell>
        <mxCell id="VoiKXLWZ08wAaBAvp7RD-65" value="a=b&amp;amp;&amp;amp;b=c" style="rhombus;whiteSpace=wrap;html=1;" vertex="1" parent="1">
          <mxGeometry x="380" y="300" width="80" height="80" as="geometry" />
        </mxCell>
        <mxCell id="VoiKXLWZ08wAaBAvp7RD-93" style="edgeStyle=orthogonalEdgeStyle;rounded=0;orthogonalLoop=1;jettySize=auto;html=1;entryX=0;entryY=0.5;entryDx=0;entryDy=0;" edge="1" parent="1" source="VoiKXLWZ08wAaBAvp7RD-68" target="VoiKXLWZ08wAaBAvp7RD-96">
          <mxGeometry relative="1" as="geometry">
            <mxPoint x="40" y="960" as="targetPoint" />
          </mxGeometry>
        </mxCell>
        <mxCell id="VoiKXLWZ08wAaBAvp7RD-68" value="print&amp;nbsp; deu" style="shape=parallelogram;perimeter=parallelogramPerimeter;whiteSpace=wrap;html=1;fixedSize=1;" vertex="1" parent="1">
          <mxGeometry x="130" y="310" width="120" height="60" as="geometry" />
        </mxCell>
        <mxCell id="VoiKXLWZ08wAaBAvp7RD-73" style="edgeStyle=orthogonalEdgeStyle;rounded=0;orthogonalLoop=1;jettySize=auto;html=1;" edge="1" parent="1" source="VoiKXLWZ08wAaBAvp7RD-71">
          <mxGeometry relative="1" as="geometry">
            <mxPoint x="570" y="530" as="targetPoint" />
          </mxGeometry>
        </mxCell>
        <mxCell id="VoiKXLWZ08wAaBAvp7RD-74" value="TRUE" style="edgeLabel;html=1;align=center;verticalAlign=middle;resizable=0;points=[];" vertex="1" connectable="0" parent="VoiKXLWZ08wAaBAvp7RD-73">
          <mxGeometry x="-0.1443" y="1" relative="1" as="geometry">
            <mxPoint as="offset" />
          </mxGeometry>
        </mxCell>
        <mxCell id="VoiKXLWZ08wAaBAvp7RD-75" style="edgeStyle=orthogonalEdgeStyle;rounded=0;orthogonalLoop=1;jettySize=auto;html=1;" edge="1" parent="1" source="VoiKXLWZ08wAaBAvp7RD-71">
          <mxGeometry relative="1" as="geometry">
            <mxPoint x="420" y="680" as="targetPoint" />
          </mxGeometry>
        </mxCell>
        <mxCell id="VoiKXLWZ08wAaBAvp7RD-76" value="FALSE" style="edgeLabel;html=1;align=center;verticalAlign=middle;resizable=0;points=[];" vertex="1" connectable="0" parent="VoiKXLWZ08wAaBAvp7RD-75">
          <mxGeometry x="0.0045" y="4" relative="1" as="geometry">
            <mxPoint x="4" y="3" as="offset" />
          </mxGeometry>
        </mxCell>
        <mxCell id="VoiKXLWZ08wAaBAvp7RD-71" value="a=b || b=c || a=c" style="rhombus;whiteSpace=wrap;html=1;" vertex="1" parent="1">
          <mxGeometry x="370" y="490" width="100" height="80" as="geometry" />
        </mxCell>
        <mxCell id="VoiKXLWZ08wAaBAvp7RD-87" style="edgeStyle=orthogonalEdgeStyle;rounded=0;orthogonalLoop=1;jettySize=auto;html=1;" edge="1" parent="1" source="VoiKXLWZ08wAaBAvp7RD-78">
          <mxGeometry relative="1" as="geometry">
            <mxPoint x="665" y="700" as="targetPoint" />
          </mxGeometry>
        </mxCell>
        <mxCell id="VoiKXLWZ08wAaBAvp7RD-88" value="FALSE" style="edgeLabel;html=1;align=center;verticalAlign=middle;resizable=0;points=[];" vertex="1" connectable="0" parent="VoiKXLWZ08wAaBAvp7RD-87">
          <mxGeometry x="0.0478" y="-1" relative="1" as="geometry">
            <mxPoint as="offset" />
          </mxGeometry>
        </mxCell>
        <mxCell id="VoiKXLWZ08wAaBAvp7RD-90" style="edgeStyle=orthogonalEdgeStyle;rounded=0;orthogonalLoop=1;jettySize=auto;html=1;" edge="1" parent="1" source="VoiKXLWZ08wAaBAvp7RD-78" target="VoiKXLWZ08wAaBAvp7RD-91">
          <mxGeometry relative="1" as="geometry">
            <mxPoint x="870" y="530" as="targetPoint" />
          </mxGeometry>
        </mxCell>
        <mxCell id="VoiKXLWZ08wAaBAvp7RD-92" value="TRUE" style="edgeLabel;html=1;align=center;verticalAlign=middle;resizable=0;points=[];" vertex="1" connectable="0" parent="VoiKXLWZ08wAaBAvp7RD-90">
          <mxGeometry x="-0.3" y="-1" relative="1" as="geometry">
            <mxPoint x="1" y="185" as="offset" />
          </mxGeometry>
        </mxCell>
        <mxCell id="VoiKXLWZ08wAaBAvp7RD-78" value="a^2+b^2=c^2 || a^2+c^2=b^2 || b^2+c^2=a^2" style="rhombus;whiteSpace=wrap;html=1;" vertex="1" parent="1">
          <mxGeometry x="570" y="467.5" width="190" height="125" as="geometry" />
        </mxCell>
        <mxCell id="VoiKXLWZ08wAaBAvp7RD-80" style="edgeStyle=orthogonalEdgeStyle;rounded=0;orthogonalLoop=1;jettySize=auto;html=1;" edge="1" parent="1" source="VoiKXLWZ08wAaBAvp7RD-79">
          <mxGeometry relative="1" as="geometry">
            <mxPoint x="420" y="920" as="targetPoint" />
          </mxGeometry>
        </mxCell>
        <mxCell id="VoiKXLWZ08wAaBAvp7RD-81" value="FALSE" style="edgeLabel;html=1;align=center;verticalAlign=middle;resizable=0;points=[];" vertex="1" connectable="0" parent="VoiKXLWZ08wAaBAvp7RD-80">
          <mxGeometry x="0.065" relative="1" as="geometry">
            <mxPoint as="offset" />
          </mxGeometry>
        </mxCell>
        <mxCell id="VoiKXLWZ08wAaBAvp7RD-84" style="edgeStyle=orthogonalEdgeStyle;rounded=0;orthogonalLoop=1;jettySize=auto;html=1;" edge="1" parent="1" source="VoiKXLWZ08wAaBAvp7RD-79">
          <mxGeometry relative="1" as="geometry">
            <mxPoint x="240" y="742.5" as="targetPoint" />
          </mxGeometry>
        </mxCell>
        <mxCell id="VoiKXLWZ08wAaBAvp7RD-85" value="TRUE" style="edgeLabel;html=1;align=center;verticalAlign=middle;resizable=0;points=[];" vertex="1" connectable="0" parent="VoiKXLWZ08wAaBAvp7RD-84">
          <mxGeometry x="0.0298" y="-2" relative="1" as="geometry">
            <mxPoint as="offset" />
          </mxGeometry>
        </mxCell>
        <mxCell id="VoiKXLWZ08wAaBAvp7RD-79" value="a^2+b^2=c^2 || a^2+c^2=b^2 || b^2+c^2=a^2" style="rhombus;whiteSpace=wrap;html=1;" vertex="1" parent="1">
          <mxGeometry x="325" y="680" width="190" height="125" as="geometry" />
        </mxCell>
        <mxCell id="VoiKXLWZ08wAaBAvp7RD-108" style="edgeStyle=orthogonalEdgeStyle;shape=connector;rounded=0;orthogonalLoop=1;jettySize=auto;html=1;entryX=0.5;entryY=0;entryDx=0;entryDy=0;labelBackgroundColor=default;strokeColor=default;fontFamily=Helvetica;fontSize=11;fontColor=default;endArrow=classic;" edge="1" parent="1" source="VoiKXLWZ08wAaBAvp7RD-82" target="VoiKXLWZ08wAaBAvp7RD-96">
          <mxGeometry relative="1" as="geometry" />
        </mxCell>
        <mxCell id="VoiKXLWZ08wAaBAvp7RD-82" value="Print thuong" style="shape=parallelogram;perimeter=parallelogramPerimeter;whiteSpace=wrap;html=1;fixedSize=1;" vertex="1" parent="1">
          <mxGeometry x="350" y="920" width="120" height="60" as="geometry" />
        </mxCell>
        <mxCell id="VoiKXLWZ08wAaBAvp7RD-94" style="edgeStyle=orthogonalEdgeStyle;rounded=0;orthogonalLoop=1;jettySize=auto;html=1;entryX=0.5;entryY=0;entryDx=0;entryDy=0;exitX=0.5;exitY=1;exitDx=0;exitDy=0;" edge="1" parent="1" source="VoiKXLWZ08wAaBAvp7RD-86" target="VoiKXLWZ08wAaBAvp7RD-96">
          <mxGeometry relative="1" as="geometry">
            <mxPoint x="190.51999999999995" y="1020" as="targetPoint" />
            <mxPoint x="170" y="780" as="sourcePoint" />
          </mxGeometry>
        </mxCell>
        <mxCell id="VoiKXLWZ08wAaBAvp7RD-86" value="Print vuong" style="shape=parallelogram;perimeter=parallelogramPerimeter;whiteSpace=wrap;html=1;fixedSize=1;" vertex="1" parent="1">
          <mxGeometry x="120" y="712.5" width="120" height="60" as="geometry" />
        </mxCell>
        <mxCell id="VoiKXLWZ08wAaBAvp7RD-106" style="edgeStyle=orthogonalEdgeStyle;rounded=0;orthogonalLoop=1;jettySize=auto;html=1;exitX=0.5;exitY=1;exitDx=0;exitDy=0;entryX=1;entryY=0.5;entryDx=0;entryDy=0;" edge="1" parent="1" source="VoiKXLWZ08wAaBAvp7RD-89" target="VoiKXLWZ08wAaBAvp7RD-96">
          <mxGeometry relative="1" as="geometry">
            <mxPoint x="280" y="1050" as="targetPoint" />
          </mxGeometry>
        </mxCell>
        <mxCell id="VoiKXLWZ08wAaBAvp7RD-89" value="Print can" style="shape=parallelogram;perimeter=parallelogramPerimeter;whiteSpace=wrap;html=1;fixedSize=1;" vertex="1" parent="1">
          <mxGeometry x="600" y="700" width="120" height="60" as="geometry" />
        </mxCell>
        <mxCell id="VoiKXLWZ08wAaBAvp7RD-134" style="edgeStyle=orthogonalEdgeStyle;shape=connector;rounded=0;orthogonalLoop=1;jettySize=auto;html=1;entryX=1;entryY=0.25;entryDx=0;entryDy=0;labelBackgroundColor=default;strokeColor=default;fontFamily=Helvetica;fontSize=11;fontColor=default;endArrow=classic;" edge="1" parent="1" source="VoiKXLWZ08wAaBAvp7RD-91" target="VoiKXLWZ08wAaBAvp7RD-96">
          <mxGeometry relative="1" as="geometry" />
        </mxCell>
        <mxCell id="VoiKXLWZ08wAaBAvp7RD-91" value="Printf vuongcan" style="shape=parallelogram;perimeter=parallelogramPerimeter;whiteSpace=wrap;html=1;fixedSize=1;" vertex="1" parent="1">
          <mxGeometry x="840" y="1020" width="120" height="60" as="geometry" />
        </mxCell>
        <mxCell id="VoiKXLWZ08wAaBAvp7RD-96" value="End" style="rounded=1;whiteSpace=wrap;html=1;" vertex="1" parent="1">
          <mxGeometry x="80" y="1030" width="120" height="60" as="geometry" />
        </mxCell>
      </root>
    </mxGraphModel>
  </diagram>
</mxfile>
